******* Two.Lovers.2008.DVDRiP.XviD.SWESUB-Zen_Bud ********

Format                           : AVI
File size                        : 1.38 GiB
Duration                         : 1h 45mn
Overall bit rate                 : 1 875 Kbps


Video

Format                           : MPEG-4 Visual
Codec ID/Hint                    : XviD
Duration                         : 1h 45mn
Bit rate                         : 1 737 Kbps
Width                            : 688 pixels
Height                           : 384 pixels
Display aspect ratio             : 16:9
Stream size                      : 1.28 GiB (93%)
Writing library                  : XviD 1.2.1 (UTC 2008-12-04)

Audio

Format                           : MPEG Audio
Codec ID/Hint                    : MP3
Duration                         : 1h 45mn
Bit rate                         : 128 Kbps
Channel(s)                       : 2 channels
Sampling rate                    : 48.0 KHz
Stream size                      : 96.6 MiB (7%)
Writing library                  : LAME3.97 


A Brooklyn-set romantic drama about a bachelor 

(Phoenix) torn between the family friend his parents
 
wish he would marry and his beautiful but volatile new neighbor. 